<svg width="24" height="24" viewBox="0 0 24 24" fill="none" xmlns="http://www.w3.org/2000/svg">
<path fill-rule="evenodd" clip-rule="evenodd" d="M12 2C6.47715 2 2 6.47715 2 12C2 17.5228 6.47715 22 12 22C17.5228 22 22 17.5228 22 12C22 6.47715 17.5228 2 12 2ZM12 4C7.58172 4 4 7.58172 4 12C4 16.4183 7.58172 20 12 20C16.4183 20 20 16.4183 20 12C20 7.58172 16.4183 4 12 4ZM15.5303 10.5303C15.8232 10.2374 15.8232 9.76256 15.5303 9.46967C15.2374 9.17678 14.7626 9.17678 14.4697 9.46967L11 12.9393L9.53033 11.4697C9.23744 11.1768 8.76256 11.1768 8.46967 11.4697C8.17678 11.7626 8.17678 12.2374 8.46967 12.5303L10.4697 14.5303C10.7626 14.8232 11.2374 14.8232 11.5303 14.5303L15.5303 10.5303ZM7.5 8.5C7.5 7.11929 8.61929 6 10 6C11.3807 6 12.5 7.11929 12.5 8.5C12.5 9.88071 11.3807 11 10 11C8.61929 11 7.5 9.88071 7.5 8.5ZM10 7.5C9.44772 7.5 9 7.94772 9 8.5C9 9.05228 9.44772 9.5 10 9.5C10.5523 9.5 11 9.05228 11 8.5C11 7.94772 10.5523 7.5 10 7.5ZM14 14C14 12.6193 15.1193 11.5 16.5 11.5C17.8807 11.5 19 12.6193 19 14C19 15.3807 17.8807 16.5 16.5 16.5C15.1193 16.5 14 15.3807 14 14ZM16.5 13C15.9477 13 15.5 13.4477 15.5 14C15.5 14.5523 15.9477 15 16.5 15C17.0523 15 17.5 14.5523 17.5 14C17.5 13.4477 17.0523 13 16.5 13Z" fill="currentColor"/>
</svg>
